<?xml version="1.0" encoding="UTF-8" standalone="no"?>
<svg
   xmlns:dc="http://purl.org/dc/elements/1.1/"
   xmlns:cc="http://creativecommons.org/ns#"
   xmlns:rdf="http://www.w3.org/1999/02/22-rdf-syntax-ns#"
   xmlns:svg="http://www.w3.org/2000/svg"
   xmlns="http://www.w3.org/2000/svg"
   xmlns:sodipodi="http://sodipodi.sourceforge.net/DTD/sodipodi-0.dtd"
   xmlns:inkscape="http://www.inkscape.org/namespaces/inkscape"
   version="1.1"
   x="0px"
   y="0px"
   viewBox="0 0 128 128"
   enable-background="new 0 0 1000 1000"
   xml:space="preserve"
   id="svg895"
   sodipodi:docname="icon128.svg"
   inkscape:version="1.0.2 (1.0.2+r75+1)"
   width="128"
   height="128"
   inkscape:export-filename="/home/radoslav/Work-Github/chrome-extension-youtube-recently-uploaded/graphics/icon128.png"
   inkscape:export-xdpi="96"
   inkscape:export-ydpi="96"><defs
   id="defs899" /><sodipodi:namedview
   pagecolor="#ffffff"
   bordercolor="#666666"
   borderopacity="1"
   objecttolerance="10"
   gridtolerance="10"
   guidetolerance="10"
   inkscape:pageopacity="0"
   inkscape:pageshadow="2"
   inkscape:window-width="1920"
   inkscape:window-height="1024"
   id="namedview897"
   showgrid="false"
   inkscape:zoom="1.686"
   inkscape:cx="-37.592628"
   inkscape:cy="71.307973"
   inkscape:window-x="0"
   inkscape:window-y="27"
   inkscape:window-maximized="1"
   inkscape:current-layer="svg895" />
<metadata
   id="metadata885"> Svg Vector Icons : http://www.onlinewebfonts.com/icon <rdf:RDF><cc:Work
     rdf:about=""><dc:format>image/svg+xml</dc:format><dc:type
       rdf:resource="http://purl.org/dc/dcmitype/StillImage" /><dc:title></dc:title></cc:Work></rdf:RDF></metadata>

<g
   id="g952"
   transform="matrix(0.12743415,0,0,0.12743415,0.28292524,0.28292486)"><circle
     style="fill:#e6e62d;fill-opacity:1;stroke:none;stroke-width:79.1461;stroke-linecap:square;stroke-linejoin:round;stroke-miterlimit:4;stroke-dasharray:none;stroke-opacity:1;paint-order:fill markers stroke"
     id="path906"
     cx="500"
     cy="500"
     r="385.81778" /><path
     d="M 462.77122,42.513559 C 396.6891,49.077509 344.34702,64.013557 290.60173,91.277023 242.2338,115.76235 204.42281,143.42135 168.19395,180.84622 -3.9755427,358.58142 -4.9643731,640.02138 166.20687,817.37046 c 57.32391,59.50875 126.39136,101.31273 204.00983,123.40603 183.91303,52.34208 380.1629,-13.73062 494.40577,-166.98991 20.30398,-27.07512 37.01992,-55.93013 37.01992,-63.49233 0,-11.54577 -12.93955,-19.5035 -24.68309,-14.92663 -1.78931,0.5933 -8.56044,10.34976 -15.32216,21.69777 C 798.9453,822.34286 693.65841,895.38446 571.84392,918.08048 441.67618,942.16085 302.1475,900.56405 205.22329,808.61224 94.1541,702.9204 47.98043,546.07307 84.80259,398.59609 99.72922,338.48462 131.17402,275.79277 168.19395,231.20123 275.0818,103.02056 443.06054,48.088679 602.09271,89.092178 c 89.5692,23.091542 171.56678,76.431882 227.90186,148.286892 14.92663,19.10797 35.82391,50.75054 35.82391,54.33858 0,0.99825 -10.54752,7.36443 -23.28931,14.5311 -30.05102,16.51817 -33.24353,19.10797 -33.24353,28.45948 0,4.57687 1.39378,8.75821 4.18134,11.348 4.3791,4.37911 94.34383,31.65199 104.69359,31.65199 8.56045,0 12.74179,-3.18309 16.12264,-12.33683 5.77289,-15.92488 27.0657,-92.95006 27.0657,-98.12023 0,-7.16667 -8.36268,-14.92663 -15.72711,-14.92663 -3.57862,0 -14.5311,4.77464 -27.26346,11.74354 l -21.29282,11.74354 -10.74529,-17.13973 C 860.64831,217.66838 822.03684,173.48179 787.20176,145.41784 722.11789,92.868569 642.30515,57.845139 561.2964,46.299367 539.2031,43.116275 479.09163,40.922013 462.77122,42.513559 Z"
     id="path887"
     style="stroke:#000000;stroke-width:71.1869;stroke-linecap:square;stroke-linejoin:round;stroke-miterlimit:4;stroke-dasharray:none;stroke-opacity:1;paint-order:fill markers stroke" /><path
     id="path924"
     style="fill:#000000;fill-opacity:1;stroke:#000000;stroke-width:137.229;stroke-linecap:round;stroke-linejoin:round;stroke-miterlimit:4;stroke-dasharray:none;stroke-opacity:1"
     d="M 346.09271,305.3148 V 724.46601 L 671.42866,514.88906 Z" /></g></svg>
